<svg id="Layer_1" data-name="Layer 1" xmlns="http://www.w3.org/2000/svg" viewBox="0 0 37.788 38.194"><path d="M23.766,33.847c-5.574,2.83-10.81,4.728-16.477,5.143a16.7,16.7,0,0,1-4.418-.274C.909,38.327.318,36.722,1.641,35.21a27.411,27.411,0,0,1,4.176-3.737c4.33-3.264,8.705-6.491,11.966-10.892A68.605,68.605,0,0,0,22.144,13.6c1.768-3.105,4.27-4.346,7.364-3.545a2.1,2.1,0,0,1,1.7,1.739c.392,1.729.671,1.907,2.322,1.412a1.744,1.744,0,0,1,1.975.549c2.512,2.629,2.9,5.523.952,8.737a30.283,30.283,0,0,1-8.99,9.03C26.1,32.465,24.657,33.289,23.766,33.847Zm-16.374.027.254.372c1.277-.844,2.573-1.661,3.829-2.537A41.96,41.96,0,0,0,24.623,17.7c1.023-1.846,1.7-3.965,4.109-4.9-.24-.218-.462-.14-.678-.153-1.839-.117-2.787,1.04-3.484,2.482A42.871,42.871,0,0,1,11.96,30.305Z" transform="translate(-0.931 -0.839)" fill="#bf0c0c"/><path d="M37.839,15.5,36.3,13.481a2.465,2.465,0,0,0-3.086-1.017c-.3.112-1.087-.166-1.1-.316-.243-2.585-2.1-2.942-4.126-3.1a.671.671,0,0,1-.217-.106l-.048-.394a17.992,17.992,0,0,1,3.246-.383c2.959.174,4.453-.595,5.6-3.382A32.788,32.788,0,0,0,37.664.839a1,1,0,0,1,.977,1.435,27.042,27.042,0,0,1-1.883,5.115,3.5,3.5,0,0,0-.055,3.9A6.328,6.328,0,0,1,37.839,15.5Z" transform="translate(-0.931 -0.839)" fill="#137a3c"/></svg>